<svg xmlns="http://www.w3.org/2000/svg" width="33.147" height="38.569" viewBox="0 0 33.147 38.569"><g transform="translate(-287.339 -405.784)"><circle cx="13.483" cy="13.483" r="13.483" transform="translate(287.339 412.075)" fill="#0fff06"/><path d="M304.688,444.353a1.213,1.213,0,0,1-.368-2.369A17.232,17.232,0,0,0,316.361,425.5a16.924,16.924,0,0,0-1.563-7.2,17.5,17.5,0,0,0-15.73-10.1,17.248,17.248,0,0,0-6.018,1.075,1.213,1.213,0,0,1-.844-2.274,19.666,19.666,0,0,1,6.862-1.227,19.461,19.461,0,0,1,10.623,3.136,20.657,20.657,0,0,1,7.287,8.323,19.149,19.149,0,0,1,1.809,8.26,19.559,19.559,0,0,1-3.88,11.747,19.754,19.754,0,0,1-9.851,7.045A1.213,1.213,0,0,1,304.688,444.353Z" transform="translate(1.7)" fill="#0fff06"/></g></svg>